<svg xmlns="http://www.w3.org/2000/svg" viewBox="0 0 512 512" style="height: 512px; width: 512px;"><defs><radialGradient id="delapouite-contract-gradient-0"><stop offset="0%" stop-color="#ff2694" stop-opacity="1"></stop><stop offset="100%" stop-color="#ffe82c" stop-opacity="1"></stop></radialGradient></defs><circle cx="256" cy="256" r="252" fill="url(#pattern)" stroke="#ffffff" stroke-opacity="1" stroke-width="4"></circle><g class="" transform="translate(0,0)" style=""><path d="M96 64L64 96l48 48-48 48h128V64l-48 48-48-48zm224 0v128h128l-48-48 48-48-32-32-48 48-48-48zM64 320l48 48-48 48 32 32 48-48 48 48V320H64zm256 0v128l48-48 48 48 32-32-48-48 48-48H320z" fill="#ffffff" fill-opacity="1"></path></g></svg>